<svg width="142" height="37" viewBox="0 0 142 37" fill="none" xmlns="http://www.w3.org/2000/svg">
<path d="M0.5 18.45C0.5 6.3 7.1 0.499998 22.5 0.499998C36.5 0.499998 43.8 5.4 44.35 16.45H31.05C30.55 13.15 28 11.5 22.5 11.5C14.8 11.5 13.5 14.75 13.5 18.45C13.5 22.2 14.85 25.5 22.5 25.5C28 25.5 30.55 23.8 31.05 20.45H44.35C43.8 31.55 36.55 36.5 22.5 36.5C7.1 36.5 0.5 30.65 0.5 18.45ZM86.773 14.4C86.773 19.5 84.423 23.7 80.573 25.95L86.773 36H71.373L66.523 27.8H58.873V36H45.873V0.999998H73.373C81.323 0.999998 86.773 6.6 86.773 14.4ZM58.873 12V16.8H70.873C72.173 16.8 73.773 16.8 73.773 14.4C73.773 12 72.173 12 70.873 12H58.873ZM141.856 0.999998V36H128.856V19.35L119.306 36H110.806L101.256 19.35V36H88.2559V0.999998H104.256L115.056 21L125.856 0.999998H141.856Z" fill="#1B1F54"/>
</svg>
