<svg width="40" height="40" viewBox="0 0 40 40" fill="none" xmlns="http://www.w3.org/2000/svg">
<path d="M33.6832 13.0334L20.8499 20.4667C20.3332 20.7667 19.6832 20.7667 19.1499 20.4667L6.31654 13.0334C5.39987 12.5 5.16654 11.25 5.86654 10.4667C6.34987 9.91669 6.89987 9.46669 7.4832 9.15002L16.5165 4.15002C18.4499 3.06669 21.5832 3.06669 23.5165 4.15002L32.5499 9.15002C33.1332 9.46669 33.6832 9.93336 34.1665 10.4667C34.8332 11.25 34.5999 12.5 33.6832 13.0334Z" fill="#1B1F54"/>
<path d="M19.0501 23.5667V34.9334C19.0501 36.2 17.7668 37.0334 16.6335 36.4834C13.2001 34.8 7.4168 31.65 7.4168 31.65C5.38346 30.5 3.7168 27.6 3.7168 25.2167V16.6167C3.7168 15.3 5.10013 14.4667 6.23346 15.1167L18.2168 22.0667C18.7168 22.3834 19.0501 22.95 19.0501 23.5667Z" fill="#1B1F54"/>
<path d="M20.9502 23.5667V34.9334C20.9502 36.2 22.2335 37.0334 23.3669 36.4834C26.8002 34.8 32.5835 31.65 32.5835 31.65C34.6169 30.5 36.2835 27.6 36.2835 25.2167V16.6167C36.2835 15.3 34.9002 14.4667 33.7669 15.1167L21.7835 22.0667C21.2835 22.3834 20.9502 22.95 20.9502 23.5667Z" fill="#1B1F54"/>
</svg>
