<svg width="40" height="40" viewBox="0 0 40 40" fill="none" xmlns="http://www.w3.org/2000/svg">
<path d="M24.7498 6.58335V12.9167H22.2498V6.58335C22.2498 6.13335 21.8498 5.91669 21.5832 5.91669C21.4998 5.91669 21.4165 5.93335 21.3332 5.96669L8.1165 10.95C7.23317 11.2834 6.6665 12.1167 6.6665 13.0667V14.1834C5.14984 15.3167 4.1665 17.1334 4.1665 19.1834V13.0667C4.1665 11.0834 5.38317 9.31669 7.23317 8.61669L20.4665 3.61669C20.8332 3.48335 21.2165 3.41669 21.5832 3.41669C23.2498 3.41669 24.7498 4.76669 24.7498 6.58335Z" fill="#1B1F54"/>
<path d="M35.8333 24.1666V25.8333C35.8333 26.2833 35.4833 26.65 35.0166 26.6666H32.5833C31.7 26.6666 30.9 26.0166 30.8333 25.15C30.7833 24.6333 30.9833 24.15 31.3166 23.8166C31.6166 23.5 32.0333 23.3333 32.4833 23.3333H35C35.4833 23.35 35.8333 23.7166 35.8333 24.1666Z" fill="#1B1F54"/>
<path d="M32.4665 21.5834H34.1665C35.0832 21.5834 35.8332 20.8334 35.8332 19.9167V19.1834C35.8332 15.7334 33.0165 12.9167 29.5665 12.9167H10.4332C9.0165 12.9167 7.7165 13.3834 6.6665 14.1834C5.14984 15.3167 4.1665 17.1334 4.1665 19.1834V30.4C4.1665 33.85 6.98317 36.6667 10.4332 36.6667H29.5665C33.0165 36.6667 35.8332 33.85 35.8332 30.4V30.0834C35.8332 29.1667 35.0832 28.4167 34.1665 28.4167H32.7165C31.1165 28.4167 29.5832 27.4334 29.1665 25.8834C28.8165 24.6167 29.2332 23.4 30.0665 22.5834C30.6832 21.95 31.5332 21.5834 32.4665 21.5834ZM23.3332 21.25H11.6665C10.9832 21.25 10.4165 20.6834 10.4165 20C10.4165 19.3167 10.9832 18.75 11.6665 18.75H23.3332C24.0165 18.75 24.5832 19.3167 24.5832 20C24.5832 20.6834 24.0165 21.25 23.3332 21.25Z" fill="#1B1F54"/>
</svg>
