<svg width="40" height="40" viewBox="0 0 40 40" fill="none" xmlns="http://www.w3.org/2000/svg">
<path d="M32.2336 24.15L30.5669 21.3833C30.2169 20.7666 29.9002 19.6 29.9002 18.9166V14.7C29.9002 10.7833 27.6002 7.39998 24.2836 5.81665C23.4169 4.28331 21.8169 3.33331 19.9836 3.33331C18.1669 3.33331 16.5336 4.31665 15.6669 5.86665C12.4169 7.48331 10.1669 10.8333 10.1669 14.7V18.9166C10.1669 19.6 9.85023 20.7666 9.50023 21.3666L7.8169 24.15C7.15023 25.2666 7.00023 26.5 7.4169 27.6333C7.8169 28.75 8.7669 29.6166 10.0002 30.0333C13.2336 31.1333 16.6336 31.6666 20.0336 31.6666C23.4336 31.6666 26.8336 31.1333 30.0669 30.05C31.2336 29.6666 32.1336 28.7833 32.5669 27.6333C33.0002 26.4833 32.8836 25.2166 32.2336 24.15Z" fill="#1B1F54"/>
<path d="M24.7165 33.35C24.0165 35.2833 22.1665 36.6666 19.9998 36.6666C18.6831 36.6666 17.3831 36.1333 16.4665 35.1833C15.9331 34.6833 15.5331 34.0166 15.2998 33.3333C15.5165 33.3666 15.7331 33.3833 15.9665 33.4166C16.3498 33.4666 16.7498 33.5166 17.1498 33.55C18.0998 33.6333 19.0665 33.6833 20.0331 33.6833C20.9831 33.6833 21.9331 33.6333 22.8665 33.55C23.2165 33.5166 23.5665 33.5 23.8998 33.45C24.1665 33.4166 24.4331 33.3833 24.7165 33.35Z" fill="#1B1F54"/>
</svg>