<svg width="40" height="40" viewBox="0 0 40 40" fill="none" xmlns="http://www.w3.org/2000/svg">
<path d="M20.0335 4.85001C14.5168 4.85001 10.0335 9.33334 10.0335 14.85V19.6667C10.0335 20.6833 9.60015 22.2333 9.08348 23.1L7.16681 26.2833C5.98348 28.25 6.80015 30.4333 8.96681 31.1667C16.1501 33.5667 23.9001 33.5667 31.0835 31.1667C33.1001 30.5 33.9835 28.1167 32.8835 26.2833L30.9668 23.1C30.4668 22.2333 30.0335 20.6833 30.0335 19.6667V14.85C30.0335 9.35001 25.5335 4.85001 20.0335 4.85001Z" fill="#1B1F54" stroke="#1B1F54" stroke-width="1.5" stroke-miterlimit="10" stroke-linecap="round"/>
<path d="M23.1169 5.33334C22.6002 5.18334 22.0669 5.06667 21.5169 5C19.9169 4.8 18.3835 4.91667 16.9502 5.33334C17.4335 4.1 18.6335 3.23334 20.0335 3.23334C21.4335 3.23334 22.6335 4.1 23.1169 5.33334Z" fill="#1B1F54" stroke="#1B1F54" stroke-width="1.5" stroke-miterlimit="10" stroke-linecap="round" stroke-linejoin="round"/>
<path d="M25.0332 31.7667C25.0332 34.5167 22.7832 36.7667 20.0332 36.7667C18.6665 36.7667 17.3999 36.2 16.4999 35.3C15.5999 34.4 15.0332 33.1333 15.0332 31.7667" fill="#1B1F54"/>
<path d="M25.0332 31.7667C25.0332 34.5167 22.7832 36.7667 20.0332 36.7667C18.6665 36.7667 17.3999 36.2 16.4999 35.3C15.5999 34.4 15.0332 33.1333 15.0332 31.7667" stroke="#1B1F54" stroke-width="1.5" stroke-miterlimit="10"/>
</svg>
