<svg width="40" height="40" viewBox="0 0 40 40" fill="none" xmlns="http://www.w3.org/2000/svg">
<path d="M29.2167 12.95C29.1001 12.9333 28.9834 12.9333 28.8667 12.95C26.2834 12.8666 24.2334 10.75 24.2334 8.14998C24.2334 5.49998 26.3834 3.33331 29.0501 3.33331C31.7001 3.33331 33.8667 5.48331 33.8667 8.14998C33.8501 10.75 31.8001 12.8666 29.2167 12.95Z" fill="#1B1F54"/>
<path d="M34.6498 24.5C32.7832 25.75 30.1665 26.2167 27.7498 25.9C28.3832 24.5333 28.7165 23.0167 28.7332 21.4167C28.7332 19.75 28.3665 18.1667 27.6665 16.7833C30.1332 16.45 32.7498 16.9167 34.6332 18.1667C37.2665 19.9 37.2665 22.75 34.6498 24.5Z" fill="#1B1F54"/>
<path d="M10.7334 12.95C10.8501 12.9333 10.9668 12.9333 11.0834 12.95C13.6668 12.8666 15.7168 10.75 15.7168 8.14998C15.7168 5.48331 13.5668 3.33331 10.9001 3.33331C8.2501 3.33331 6.1001 5.48331 6.1001 8.14998C6.1001 10.75 8.1501 12.8666 10.7334 12.95Z" fill="#1B1F54"/>
<path d="M10.9169 21.4167C10.9169 23.0333 11.2669 24.5667 11.9002 25.95C9.5502 26.2 7.1002 25.7 5.3002 24.5167C2.66686 22.7667 2.66686 19.9167 5.3002 18.1667C7.08353 16.9667 9.60019 16.4833 11.9669 16.75C11.2835 18.15 10.9169 19.7333 10.9169 21.4167Z" fill="#1B1F54"/>
<path d="M20.2 26.45C20.0667 26.4333 19.9167 26.4333 19.7667 26.45C16.7 26.35 14.25 23.8333 14.25 20.7333C14.2667 17.5667 16.8167 15 20 15C23.1667 15 25.7333 17.5667 25.7333 20.7333C25.7167 23.8333 23.2833 26.35 20.2 26.45Z" fill="#1B1F54"/>
<path d="M14.7835 29.9C12.2668 31.5834 12.2668 34.35 14.7835 36.0167C17.6502 37.9334 22.3502 37.9334 25.2168 36.0167C27.7335 34.3334 27.7335 31.5667 25.2168 29.9C22.3668 27.9834 17.6668 27.9834 14.7835 29.9Z" fill="#1B1F54"/>
</svg>
