<svg width="40" height="40" viewBox="0 0 40 40" fill="none" xmlns="http://www.w3.org/2000/svg">
<path d="M31.5668 9.03333L22.9501 4.04999C21.3001 3.09999 18.7168 3.09999 17.0668 4.04999L8.3668 9.06666C4.9168 11.4 4.7168 11.75 4.7168 15.4667V24.5167C4.7168 28.2333 4.9168 28.6 8.43346 30.9667L17.0501 35.95C17.8835 36.4333 18.9501 36.6667 20.0001 36.6667C21.0501 36.6667 22.1168 36.4333 22.9335 35.95L31.6335 30.9333C35.0835 28.6 35.2835 28.25 35.2835 24.5333V15.4667C35.2835 11.75 35.0835 11.4 31.5668 9.03333ZM20.0001 25.4167C17.0168 25.4167 14.5835 22.9833 14.5835 20C14.5835 17.0167 17.0168 14.5833 20.0001 14.5833C22.9835 14.5833 25.4168 17.0167 25.4168 20C25.4168 22.9833 22.9835 25.4167 20.0001 25.4167Z" fill="#1B1F54"/>
</svg>
